<?xml version="1.0" encoding="UTF-8"?>
<svg width="32px" height="33px" viewBox="0 0 32 33" version="1.1" xmlns="http://www.w3.org/2000/svg" xmlns:xlink="http://www.w3.org/1999/xlink">
    <!-- Generator: Sketch 48.2 (47327) - http://www.bohemiancoding.com/sketch -->
    <title>logo</title>
    <desc>Created with Sketch.</desc>
    <defs>
        <linearGradient x1="50%" y1="0%" x2="50%" y2="100%" id="linearGradient-1">
            <stop stop-color="#FAD961" offset="0%"></stop>
            <stop stop-color="#F76B1C" offset="100%"></stop>
        </linearGradient>
        <linearGradient x1="0%" y1="0%" x2="101.999998%" y2="100.999999%" id="linearGradient-2">
            <stop stop-color="#3023AE" offset="0%"></stop>
            <stop stop-color="#C86DD7" offset="100%"></stop>
        </linearGradient>
        <path d="M8.30200364,6.65508685 C8.33406193,6.58613034 8.3420765,6.55165208 8.3420765,6.52579339 C8.3420765,6.37926081 7.55664845,6 6.79526412,6 C5.86557377,6 5.03205829,6.51717383 5.03205829,7.75839101 C5.03205829,8.47381481 5.30455373,8.81859736 5.72932605,9.0944234 C6.54681239,9.62883636 7.36429872,9.70641243 7.36429872,10.4735536 C7.36429872,11.0079666 7.09180328,11.2665535 6.64298725,11.2665535 C5.95373406,11.2665535 5.36065574,10.8872927 5.31256831,10.8872927 C5.28051002,10.8872927 5.24043716,10.9217709 5.22440801,10.9734883 L5.04007286,11.5423795 C5.02404372,11.5940969 5,11.6544339 5,11.6802925 C5,11.8182056 5.8575592,12.1974664 6.67504554,12.1974664 C7.6848816,12.1974664 8.40619308,11.473423 8.40619308,10.3787384 C8.40619308,9.72365156 8.12568306,9.26681468 7.71693989,8.93927126 C7.01165756,8.37899961 6.07395264,8.25832572 6.07395264,7.60323887 C6.07395264,7.08606504 6.45865209,6.93091289 6.8273224,6.93091289 C7.40437158,6.93091289 7.90127505,7.3101737 7.94936248,7.3101737 C7.98142077,7.3101737 8.01347905,7.27569544 8.03752277,7.22397806 L8.30200364,6.65508685 Z M13.0225865,9.10304297 C13.0225865,7.01710853 12.2612022,6 11.0269581,6 C9.79271403,6 9.03132969,7.00848896 9.03132969,9.10304297 C9.03132969,11.1889774 9.78469945,12.1974664 11.0269581,12.1974664 C12.2692168,12.1974664 13.0225865,11.1889774 13.0225865,9.10304297 Z M11.0269581,11.2924122 C10.4258652,11.2924122 10.1693989,10.4476949 10.1693989,9.10304297 C10.1693989,7.75839101 10.4258652,6.9050542 11.0269581,6.9050542 C11.628051,6.9050542 11.8845173,7.74977145 11.8845173,9.10304297 C11.8845173,10.4476949 11.628051,11.2924122 11.0269581,11.2924122 Z M17.863388,6.32754342 C17.863388,6.17239128 17.8313297,6.14653258 17.695082,6.14653258 L16.9497268,6.14653258 C16.8134791,6.14653258 16.7814208,6.17239128 16.7814208,6.32754342 L16.7814208,10.051195 C16.7814208,10.6718036 16.7413479,11.2665535 15.9318761,11.2665535 C15.1224044,11.2665535 15.0823315,10.6718036 15.0823315,10.051195 L15.0823315,6.32754342 C15.0823315,6.17239128 15.0502732,6.14653258 14.9140255,6.14653258 L14.1686703,6.14653258 C14.0324226,6.14653258 14.0003643,6.17239128 14.0003643,6.32754342 L14.0003643,10.051195 C14.0003643,11.33551 14.417122,12.1974664 15.9318761,12.1974664 C17.4466302,12.1974664 17.863388,11.33551 17.863388,10.051195 L17.863388,6.32754342 Z M20.7406193,7.18088024 L21.7344262,7.18088024 C21.7985428,7.18088024 21.8867031,7.18088024 21.9187614,7.04296722 L22.0870674,6.36202168 C22.1030965,6.30168473 22.1111111,6.28444561 22.1111111,6.24134779 C22.1111111,6.16377171 22.0710383,6.14653258 21.9107468,6.14653258 L18.6087432,6.14653258 C18.4965392,6.14653258 18.4724954,6.17239128 18.4724954,6.29306517 L18.4724954,7.03434766 C18.4724954,7.15502155 18.4965392,7.18088024 18.6087432,7.18088024 L19.6586521,7.18088024 L19.6586521,11.8699229 C19.6586521,12.0250751 19.6907104,12.0509338 19.8269581,12.0509338 L20.5723133,12.0509338 C20.708561,12.0509338 20.7406193,12.0250751 20.7406193,11.8699229 L20.7406193,7.18088024 Z M26.382878,6.32754342 C26.382878,6.17239128 26.3508197,6.14653258 26.2145719,6.14653258 L25.4692168,6.14653258 C25.332969,6.14653258 25.3009107,6.17239128 25.3009107,6.32754342 L25.3009107,8.53415176 L23.7781421,8.53415176 L23.7781421,6.32754342 C23.7781421,6.17239128 23.7460838,6.14653258 23.6098361,6.14653258 L22.8644809,6.14653258 C22.7282332,6.14653258 22.6961749,6.17239128 22.6961749,6.32754342 L22.6961749,11.8699229 C22.6961749,12.0250751 22.7282332,12.0509338 22.8644809,12.0509338 L23.6098361,12.0509338 C23.7460838,12.0509338 23.7781421,12.0250751 23.7781421,11.8699229 L23.7781421,9.46506465 L25.3009107,9.46506465 L25.3009107,11.8699229 C25.3009107,12.0250751 25.332969,12.0509338 25.4692168,12.0509338 L26.2145719,12.0509338 C26.3508197,12.0509338 26.382878,12.0250751 26.382878,11.8699229 L26.382878,6.32754342 Z M8.63060109,19.1419616 C8.63861566,19.1074833 8.64663024,19.055766 8.64663024,19.0299073 C8.64663024,18.9609508 8.61457195,18.9178529 8.50236794,18.9178529 L6.5708561,18.9178529 L6.5708561,14.2288102 C6.5708561,14.0736581 6.53879781,14.0477994 6.40255009,14.0477994 L5.6571949,14.0477994 C5.52094718,14.0477994 5.48888889,14.0736581 5.48888889,14.2288102 L5.48888889,19.7711898 C5.48888889,19.9263419 5.52094718,19.9522006 5.6571949,19.9522006 L8.30200364,19.9522006 C8.42222222,19.9522006 8.44626594,19.9349615 8.47832423,19.7970485 L8.63060109,19.1419616 Z M10.4499089,18.3748204 L11.8284153,18.3748204 L12.1810565,19.7711898 C12.2211293,19.9263419 12.2371585,19.9522006 12.3173042,19.9522006 L13.2149362,19.9522006 C13.295082,19.9522006 13.3752277,19.9349615 13.3752277,19.8832441 C13.3752277,19.8487658 13.351184,19.7798093 13.3431694,19.7453311 L11.7723133,14.1857124 C11.740255,14.0822777 11.7242259,14.0477994 11.6040073,14.0477994 L10.7704918,14.0477994 C10.6342441,14.0477994 10.6262295,14.0650385 10.5941712,14.1770929 L9.01530055,19.7280919 C9.00728597,19.7625702 8.98324226,19.8315267 8.98324226,19.8746245 C8.99125683,19.9349615 9.03934426,19.9522006 9.1435337,19.9522006 L9.95300546,19.9522006 C10.073224,19.9522006 10.0892532,19.9263419 10.1213115,19.7711898 L10.4499089,18.3748204 Z M11.628051,17.5990597 L10.5701275,17.5990597 L10.9227687,16.1164947 C11.0029144,15.7717122 11.0750455,15.2717775 11.1071038,14.9097558 L11.123133,14.9097558 C11.1632058,15.2717775 11.2273224,15.7803317 11.2994536,16.1164947 L11.628051,17.5990597 Z M15.3227687,17.3490923 L15.3387978,17.3490923 L17.1821494,19.9866789 C17.2061931,20.0297767 17.2703097,20.0987332 17.3183971,20.0987332 C17.3584699,20.0987332 17.3985428,20.0642549 17.4626594,20.0297767 L18.1038251,19.6849941 C18.1519126,19.6591354 18.2080146,19.607418 18.2080146,19.5815594 C18.2080146,19.4953637 18.1759563,19.4781246 18.1519126,19.4436463 L16.2684882,16.9267337 L17.975592,14.5046363 C17.9996357,14.470158 18.031694,14.4529189 18.031694,14.3667233 C18.031694,14.3408646 17.975592,14.2891472 17.9275046,14.2632885 L17.3825137,13.9702233 C17.3183971,13.9357451 17.2783242,13.9012668 17.2382514,13.9012668 C17.1901639,13.9012668 17.1260474,13.9702233 17.1020036,14.0133211 L15.3387978,16.6422881 L15.3227687,16.6422881 L15.3227687,14.2288102 C15.3227687,14.0736581 15.2907104,14.0477994 15.1544627,14.0477994 L14.4091075,14.0477994 C14.2728597,14.0477994 14.2408015,14.0736581 14.2408015,14.2288102 L14.2408015,19.7711898 C14.2408015,19.9263419 14.2728597,19.9522006 14.4091075,19.9522006 L15.1544627,19.9522006 C15.2907104,19.9522006 15.3227687,19.9263419 15.3227687,19.7711898 L15.3227687,17.3490923 Z M21.7344262,19.2022986 C21.7344262,19.0471464 21.7103825,19.0212877 21.5661202,19.0212877 L19.8510018,19.0212877 L19.8510018,17.3318532 L21.2134791,17.3318532 C21.3497268,17.3318532 21.3817851,17.3059945 21.3817851,17.1508424 L21.3817851,16.5819512 C21.3817851,16.426799 21.3577413,16.4009403 21.2134791,16.4009403 L19.8510018,16.4009403 L19.8510018,14.9787123 L21.4058288,14.9787123 C21.4699454,14.9787123 21.5581056,14.9700927 21.5901639,14.8407993 L21.7424408,14.2632885 C21.7584699,14.2029515 21.7664845,14.1857124 21.7664845,14.1426146 C21.7664845,14.0650385 21.7264117,14.0477994 21.5661202,14.0477994 L18.9373406,14.0477994 C18.8010929,14.0477994 18.7690346,14.0736581 18.7690346,14.2288102 L18.7690346,19.7711898 C18.7690346,19.9263419 18.8010929,19.9522006 18.9373406,19.9522006 L21.5741348,19.9522006 C21.7103825,19.9522006 21.7344262,19.9263419 21.7344262,19.7711898 L21.7344262,19.2022986 Z M9.2557377,22.1300771 C9.2557377,21.9749249 9.22367942,21.9490662 9.08743169,21.9490662 L8.3420765,21.9490662 C8.20582878,21.9490662 8.17377049,21.9749249 8.17377049,22.1300771 L8.17377049,25.8537286 C8.17377049,26.4743372 8.13369763,27.0690871 7.32422587,27.0690871 C6.5147541,27.0690871 6.47468124,26.4743372 6.47468124,25.8537286 L6.47468124,22.1300771 C6.47468124,21.9749249 6.44262295,21.9490662 6.30637523,21.9490662 L5.56102004,21.9490662 C5.42477231,21.9490662 5.39271403,21.9749249 5.39271403,22.1300771 L5.39271403,25.8537286 C5.39271403,27.1380436 5.80947177,28 7.32422587,28 C8.83897996,28 9.2557377,27.1380436 9.2557377,25.8537286 L9.2557377,22.1300771 Z M14.2327869,22.1300771 C14.2327869,21.9749249 14.2007286,21.9490662 14.0644809,21.9490662 L13.4794171,21.9490662 C13.3431694,21.9490662 13.3111111,21.9749249 13.3111111,22.1300771 L13.3111111,24.8624788 C13.3111111,25.1038266 13.3351548,25.707196 13.3351548,25.9830221 L13.3191257,25.9830221 C13.2229508,25.62962 13.070674,25.1900222 12.8462659,24.7331853 L11.5238616,22.0611205 C11.4757741,21.9663053 11.459745,21.9490662 11.3395264,21.9490662 L10.6823315,21.9490662 C10.5460838,21.9490662 10.5140255,21.9749249 10.5140255,22.1300771 L10.5140255,27.6724566 C10.5140255,27.8276087 10.5460838,27.8534674 10.6823315,27.8534674 L11.2673953,27.8534674 C11.403643,27.8534674 11.4357013,27.8276087 11.4357013,27.6724566 L11.4357013,24.5694136 C11.4357013,24.1729137 11.4116576,23.7333159 11.4116576,23.6212616 L11.4276867,23.6212616 C11.5078324,24.009142 11.6440801,24.3108267 11.8845173,24.7935223 L13.351184,27.7327935 C13.3992714,27.8362283 13.4233151,27.8534674 13.5355191,27.8534674 L14.0644809,27.8534674 C14.2087432,27.8534674 14.2327869,27.8276087 14.2327869,27.6724566 L14.2327869,22.1300771 Z M17.526776,27.2070001 C17.526776,27.051848 17.4947177,27.0259893 17.3584699,27.0259893 L16.9176685,27.0259893 L16.9176685,22.7765443 L17.3584699,22.7765443 C17.4947177,22.7765443 17.526776,22.7506856 17.526776,22.5955335 L17.526776,22.1300771 C17.526776,21.9749249 17.4947177,21.9490662 17.3584699,21.9490662 L15.3948998,21.9490662 C15.2586521,21.9490662 15.2265938,21.9749249 15.2265938,22.1300771 L15.2265938,22.5955335 C15.2265938,22.7506856 15.2586521,22.7765443 15.3948998,22.7765443 L15.8357013,22.7765443 L15.8357013,27.0259893 L15.3948998,27.0259893 C15.2586521,27.0259893 15.2265938,27.051848 15.2265938,27.2070001 L15.2265938,27.6724566 C15.2265938,27.8276087 15.2586521,27.8534674 15.3948998,27.8534674 L17.3584699,27.8534674 C17.4947177,27.8534674 17.526776,27.8276087 17.526776,27.6724566 L17.526776,27.2070001 Z M22.2313297,24.9055766 C22.2313297,22.8196422 21.4699454,21.8025336 20.2357013,21.8025336 C19.0014572,21.8025336 18.2400729,22.8110226 18.2400729,24.9055766 C18.2400729,26.991511 18.9934426,28 20.2357013,28 C21.4779599,28 22.2313297,26.991511 22.2313297,24.9055766 Z M20.2357013,27.0949458 C19.6346084,27.0949458 19.3781421,26.2502285 19.3781421,24.9055766 C19.3781421,23.5609246 19.6346084,22.7075878 20.2357013,22.7075878 C20.8367942,22.7075878 21.0932605,23.5523051 21.0932605,24.9055766 C21.0932605,26.2502285 20.8367942,27.0949458 20.2357013,27.0949458 Z M27,22.1300771 C27,21.9749249 26.9679417,21.9490662 26.831694,21.9490662 L26.2466302,21.9490662 C26.1103825,21.9490662 26.0783242,21.9749249 26.0783242,22.1300771 L26.0783242,24.8624788 C26.0783242,25.1038266 26.1023679,25.707196 26.1023679,25.9830221 L26.0863388,25.9830221 C25.9901639,25.62962 25.8378871,25.1900222 25.6134791,24.7331853 L24.2910747,22.0611205 C24.2429872,21.9663053 24.2269581,21.9490662 24.1067395,21.9490662 L23.4495446,21.9490662 C23.3132969,21.9490662 23.2812386,21.9749249 23.2812386,22.1300771 L23.2812386,27.6724566 C23.2812386,27.8276087 23.3132969,27.8534674 23.4495446,27.8534674 L24.0346084,27.8534674 C24.1708561,27.8534674 24.2029144,27.8276087 24.2029144,27.6724566 L24.2029144,24.5694136 C24.2029144,24.1729137 24.1788707,23.7333159 24.1788707,23.6212616 L24.1948998,23.6212616 C24.2750455,24.009142 24.4112933,24.3108267 24.6517304,24.7935223 L26.1183971,27.7327935 C26.1664845,27.8362283 26.1905282,27.8534674 26.3027322,27.8534674 L26.831694,27.8534674 C26.9759563,27.8534674 27,27.8276087 27,27.6724566 L27,22.1300771 Z" id="path-3"></path>
    </defs>
    <g id="Page-1" stroke="none" stroke-width="1" fill="none" fill-rule="evenodd">
        <g id="logo">
            <g id="Line-+-Line-+-Line-Mask">
                <polygon id="Path" fill="url(#linearGradient-1)" points="32 0.996031996 32 33 0 33 0 0.996031996"></polygon>
                <polygon id="Path" fill="#4A90E2" points="32 0.996031996 32 13 0 33 0 0.996031996"></polygon>
                <polygon id="Path" fill="url(#linearGradient-2)" points="16 1 0 33 0 0.996031996"></polygon>
                <mask id="mask-4" fill="white">
                    <use xlink:href="#path-3"></use>
                </mask>
                <use id="Mask" fill="#FFFFFF" fill-rule="nonzero" xlink:href="#path-3"></use>
            </g>
        </g>
    </g>
</svg>