<?xml version="1.0" encoding="UTF-8"?>
<svg width="23px" height="23px" viewBox="0 0 23 23" version="1.1" xmlns="http://www.w3.org/2000/svg" xmlns:xlink="http://www.w3.org/1999/xlink">
    <!-- Generator: Sketch 48.1 (47250) - http://www.bohemiancoding.com/sketch -->
    <title>tab-2-active</title>
    <desc>Created with Sketch.</desc>
    <defs></defs>
    <g id="Symbols" stroke="none" stroke-width="1" fill="none" fill-rule="evenodd">
        <g id="Tab-Bar-/-Active-/-2" transform="translate(-13.000000, -6.000000)" fill="#4A90E2">
            <g id="logo-drt" transform="translate(13.000000, 6.000000)">
                <path d="M19.3783927,3.31018763 C16.6404152,0.585665125 12.7075302,-0.562149875 8.93524268,0.262112625 C5.16180518,1.08755388 2.06658018,3.77162513 0.716767676,7.39010013 C-0.633132512,11.0085751 -0.052524824,15.0649126 2.25759518,18.1589876 C1.9970483,18.6340239 1.60735643,19.0248514 1.1334098,19.2865339 C0.468566051,19.6234551 0.094586051,20.3489326 0.206883551,21.0856514 C0.320310926,21.8223701 0.893059801,22.4029764 1.62753605,22.5265151 C1.9476098,22.5759306 2.26992605,22.5995143 2.59336355,22.5983901 C3.91856605,22.5916511 5.2179223,22.2300451 6.35443855,21.5483539 C7.91211355,22.3064051 9.62130105,22.6994751 11.3543539,22.6983539 C14.3653414,22.6961085 17.2515511,21.4978114 19.3796289,19.3673789 C21.5077873,17.2369464 22.7028414,14.3496414 22.7028414,11.3386539 C22.7028414,8.32766638 21.5067811,5.43915388 19.3787636,3.30992888 L19.3783927,3.31018763 Z M18.5709202,18.5476876 L18.5697961,18.5476876 C16.6628661,20.4748289 14.0629461,21.5575251 11.3509586,21.5552251 C9.69110605,21.554101 8.05592105,21.1509426 6.58708355,20.3794076 C6.40402655,20.2861944 6.1839223,20.2974241 6.01208355,20.4108544 C5.00134855,21.0824256 3.8165323,21.4429219 2.60262105,21.4485569 C2.33758343,21.4485569 2.07367855,21.4283428 1.81199605,21.3879116 C1.5716633,21.3429898 1.38747355,21.1509484 1.3504148,20.9094829 C1.31335318,20.6691501 1.4323983,20.4299329 1.6480348,20.3153929 C2.44650855,19.8785366 3.0832923,19.1968454 3.4617573,18.3691616 C3.5662003,18.1670118 3.54149255,17.9221854 3.39886668,17.7458616 C1.74125668,15.6850616 0.947267926,13.0616241 1.18422543,10.4281241 C1.42118868,7.79344538 2.67114668,5.35432413 4.67016293,3.62357413 C6.67030043,1.89184663 9.26355043,1.00462163 11.9036629,1.14612913 C14.5439479,1.288755 17.0269129,2.44884913 18.8295379,4.38510413 C20.6308979,6.32124413 21.6124517,8.87959163 21.5652729,11.5243041 C21.5192269,14.1679529 20.4478467,16.6915416 18.5790104,18.5623041 L18.5709202,18.5476876 Z" id="Fill-1"></path>
                <path d="M16.5457734,6.786556 C16.5457734,6.04676917 15.7692458,5.30769231 11.738934,5.30769231 C7.7086222,5.30769231 6.93209452,6.04747914 6.93209452,6.786556 L6.93209452,7.89588125 C6.52510527,7.89588125 6.19230769,8.22867883 6.19230769,8.63566808 L6.19230769,9.37545491 C6.19230769,9.78244416 6.52510527,10.1152417 6.93209452,10.1152417 L6.93209452,14.1830043 C6.93209452,14.5899936 7.15395957,14.959532 7.48675715,15.1446562 L7.48675715,15.8469922 C7.48675715,16.364914 7.8937464,16.7711933 8.41095821,16.7711933 C8.92887998,16.7711933 9.33515927,16.364204 9.33515927,15.8469922 L9.33515927,15.2916374 L14.1419987,15.2916374 L14.1419987,15.8463 C14.1419987,16.3642218 14.548988,16.7705011 15.0661998,16.7705011 C15.5841216,16.7705011 15.9904008,16.3635118 15.9904008,15.8463 L15.9904008,15.143964 C16.3231984,14.9588398 16.5450635,14.5893014 16.5450635,14.1823121 L16.5457575,10.1145495 C16.9527467,10.1145495 17.2855443,9.78175194 17.2855443,9.37476269 L17.2855443,8.63497586 C17.2855443,8.22867883 16.9527467,7.89588125 16.5457575,7.89588125 L16.5457734,6.786556 Z M14.3264364,6.45769231 C14.5483015,6.45769231 14.6959748,6.60537101 14.6959748,6.82723074 C14.6959748,7.04909046 14.5482961,7.19676917 14.3264364,7.19676917 L9.14934855,7.19746316 C8.92748349,7.19746316 8.77981012,7.04978446 8.77981012,6.82792473 C8.77911612,6.60536746 8.92748882,6.45769408 9.14934855,6.45769408 L14.3264364,6.45769231 Z M8.36959452,14.549766 C7.96260527,14.549766 7.62980769,14.2169684 7.62980769,13.8099791 C7.62980769,13.4029899 7.96260527,13.0701923 8.36959452,13.0701923 C8.77658377,13.0701923 9.10938135,13.4029899 9.10938135,13.8099791 C9.10938135,14.2169684 8.77658377,14.549766 8.36959452,14.549766 Z M14.9820945,14.549766 C14.5751053,14.549766 14.2423077,14.2169684 14.2423077,13.8099791 C14.2423077,13.4029899 14.5751053,13.0701923 14.9820945,13.0701923 C15.3890838,13.0701923 15.7218813,13.4029899 15.7218813,13.8099791 C15.7218813,14.2169684 15.3890838,14.549766 14.9820945,14.549766 Z M15.7653329,10.8536297 C15.7653329,11.4450331 15.2848619,11.9629549 14.6560076,11.9629549 L8.73913295,11.9629549 C8.11027865,11.9629549 7.62980769,11.4450331 7.62980769,10.8536297 L7.62980769,9.00451757 C7.62980769,8.37566326 8.11027865,7.89519231 8.73913295,7.89519231 L14.6552977,7.89519231 C15.284152,7.89519231 15.7646229,8.37566326 15.7646229,9.00451757 L15.7653329,10.8536297 Z" id="Page-1"></path>
            </g>
        </g>
    </g>
</svg>