<?xml version="1.0" encoding="UTF-8"?>
<svg width="23px" height="20px" viewBox="0 0 23 20" version="1.1" xmlns="http://www.w3.org/2000/svg" xmlns:xlink="http://www.w3.org/1999/xlink">
    <!-- Generator: Sketch 48.1 (47250) - http://www.bohemiancoding.com/sketch -->
    <title>tab-3-active</title>
    <desc>Created with Sketch.</desc>
    <defs></defs>
    <g id="Symbols" stroke="none" stroke-width="1" fill="none" fill-rule="evenodd">
        <g id="Tab-Bar-/-Active-/-3" transform="translate(-13.000000, -7.000000)" fill="#4A90E2">
            <g id="logo-fixed" transform="translate(13.000000, 7.000000)">
                <path d="M3.35168889,8.43526667 C1.58900444,8.43526667 0.173911111,9.85036 0.173911111,11.6130444 C0.173911111,13.3170267 3.12028889,16.8705333 3.26473333,17.0149778 C3.29407289,17.0443173 3.32228578,17.0725302 3.35162533,17.0725302 C3.38096489,17.0725302 3.40917778,17.0431907 3.43851733,17.0149778 C3.55362222,16.8705333 6.52933956,13.3169111 6.52933956,11.6130444 C6.5,9.85148667 5.08489511,8.43526667 3.35156178,8.43526667 L3.35168889,8.43526667 Z M3.35168889,12.8555556 C2.65881778,12.8555556 2.10923556,12.3071289 2.10923556,11.6131022 C2.10923556,10.9202311 2.65766222,10.3706489 3.35168889,10.3706489 C4.04456,10.3706489 4.59414222,10.9190756 4.59414222,11.6131022 C4.59301267,12.3071 4.01523778,12.8555556 3.35168889,12.8555556 Z" id="Fill-1"></path>
                <path d="M19.1816444,0.0294666667 C17.41896,0.0294666667 16.0038667,1.44456 16.0038667,3.20724444 C16.0038667,4.91122667 18.9502444,8.46473333 19.0946889,8.60917778 C19.1240284,8.63851733 19.1522413,8.66673022 19.1815809,8.66673022 C19.2109204,8.66673022 19.2391333,8.63739067 19.2684729,8.60917778 C19.3835778,8.46473333 22.3592951,4.91111111 22.3592951,3.20724444 C22.3592951,1.44456 20.9442018,0.0294666667 19.1815173,0.0294666667 L19.1816444,0.0294666667 Z M19.1816444,4.42028889 C18.4887733,4.42028889 17.9391911,3.87186222 17.9391911,3.17783556 C17.9391911,2.48496444 18.4876178,1.93538222 19.1816444,1.93538222 C19.8745156,1.93538222 20.4240978,2.48380889 20.4240978,3.17783556 C20.4240978,3.87070667 19.8756711,4.42028889 19.1816444,4.42028889 Z" id="Fill-2"></path>
                <path d="M3.3514,19.9038667 C3.177616,19.9038667 3.06251111,19.7887618 3.06251111,19.6149778 L3.06251111,17.8816444 C3.06251111,17.7078604 3.177616,17.5927556 3.3514,17.5927556 C3.525184,17.5927556 3.84000015,17.7078604 3.84000015,17.8816444 L3.84000015,19.1299992 L18.9219333,19.1299992 L18.9219333,15.9755556 L11.4108222,15.9755556 C11.2663778,15.9755556 11.1219333,15.8604507 11.1219333,15.6866667 L11.1219333,11.7299995 C11.1219333,11.6431075 11.2831088,11.4400005 11.3700008,11.4400005 L18.7900009,11.4402889 L18.7900009,9.93829778 C18.7900009,9.76451378 19.0075716,9.64940889 19.1813556,9.64940889 C19.3551396,9.64940889 19.5699997,9.76451378 19.5699997,9.93829778 L19.5699997,11.9300003 C19.5699997,12.1037843 19.4537828,12.2199993 19.2799988,12.2199993 L11.8700008,12.2199993 L11.8700008,15.2000008 L19.3800011,15.2000008 C19.5537851,15.2000008 19.6699982,15.3162158 19.6699982,15.4899998 L19.6699982,19.6441556 C19.6699982,19.7886 19.5537851,19.9037049 19.3800011,19.9037049 L3.3514,19.9038667 Z" id="Fill-3"></path>
            </g>
        </g>
    </g>
</svg>