<?xml version="1.0" encoding="UTF-8"?>
<svg width="24px" height="21px" viewBox="0 0 24 21" version="1.1" xmlns="http://www.w3.org/2000/svg" xmlns:xlink="http://www.w3.org/1999/xlink">
    <!-- Generator: Sketch 48.1 (47250) - http://www.bohemiancoding.com/sketch -->
    <title>tab-1-active</title>
    <desc>Created with Sketch.</desc>
    <defs></defs>
    <g id="Symbols" stroke="none" stroke-width="1" fill="none" fill-rule="evenodd">
        <g id="Tab-Bar-/-Active-/-1" transform="translate(-12.000000, -7.000000)" fill="#4A90E2">
            <g id="Group" transform="translate(24.000000, 17.500000) scale(-1, 1) translate(-24.000000, -17.500000) translate(12.000000, 7.000000)">
                <path d="M1.48571409,6.65999985 C0.775633702,6.65999985 0.199999809,6.28150896 0.199999809,5.57142857 C0.199999809,4.86134818 0.775633702,4.48999977 1.48571409,4.48999977 L11.8457147,4.48999977 L9.38571371,2.21999931 C8.83110643,1.66539203 8.63277656,0.970562748 9.18738384,0.415955464 C9.74199113,-0.138651821 10.441107,0.0653935544 10.9957143,0.620000839 L15.0157138,4.43000031 C15.310494,4.7247805 16.2857143,5.54937764 16.2857143,5.57142857 C15.6355674,6.13400966 15.212234,6.51356026 15.0157138,6.71008039 L10.9957143,10.5300007 C10.441107,11.084608 9.74199113,11.281509 9.18738384,10.7269017 C8.63277656,10.1722944 8.83110643,9.47460736 9.38571371,8.92000008 L11.8457147,6.65999985 L1.48571409,6.65999985 Z" id="Combined-Shape" transform="translate(8.242857, 5.572750) scale(-1, 1) translate(-8.242857, -5.572750) "></path>
                <path d="M8.28571429,16.5717504 C7.57563389,16.5717504 7,16.1932595 7,15.4831791 C7,14.7730987 7.57563389,14.4017503 8.28571429,14.4017503 L18.6457149,14.4017503 L16.1857139,12.1317499 C15.6311066,11.5771426 15.4327768,10.8823133 15.987384,10.327706 C16.5419913,9.77309873 17.2411072,9.97714411 17.7957145,10.5317514 L21.815714,14.3417509 C22.1104942,14.636531 23.0857145,15.4611282 23.0857145,15.4831791 C22.4355676,16.0457602 22.0122341,16.4253108 21.815714,16.6218309 L17.7957145,20.4417512 C17.2411072,20.9963585 16.5419913,21.1932595 15.987384,20.6386522 C15.4327768,20.0840449 15.6311066,19.3863579 16.1857139,18.8317506 L18.6457149,16.5717504 L8.28571429,16.5717504 Z" id="Combined-Shape"></path>
            </g>
        </g>
    </g>
</svg>